<mxfile host="app.diagrams.net" modified="2020-08-06T07:03:52.389Z" agent="5.0 (Windows NT 10.0; Win64; x64) AppleWebKit/537.36 (KHTML, like Gecko) Chrome/84.0.4147.105 Safari/537.36" etag="c9157fG8699cz6IsYH5M" version="13.6.0" type="github">
  <diagram id="prtHgNgQTEPvFCAcTncT" name="Page-1">
    <mxGraphModel dx="1609" dy="469" grid="1" gridSize="10" guides="1" tooltips="1" connect="1" arrows="1" fold="1" page="1" pageScale="1" pageWidth="827" pageHeight="1169" math="0" shadow="0">
      <root>
        <mxCell id="0" />
        <mxCell id="1" parent="0" />
        <mxCell id="QC8zk8TYM2wxsu0MSsxE-2" value="Build, Validate Environment" style="rounded=0;whiteSpace=wrap;html=1;" vertex="1" parent="1">
          <mxGeometry x="570" y="70" width="120" height="50" as="geometry" />
        </mxCell>
        <mxCell id="QC8zk8TYM2wxsu0MSsxE-3" value="Wave Plan Readiness" style="rounded=0;whiteSpace=wrap;html=1;" vertex="1" parent="1">
          <mxGeometry x="450" y="70" width="120" height="50" as="geometry" />
        </mxCell>
        <mxCell id="QC8zk8TYM2wxsu0MSsxE-4" value="Onboarding and Factory Setup" style="rounded=0;whiteSpace=wrap;html=1;" vertex="1" parent="1">
          <mxGeometry x="330" y="70" width="120" height="50" as="geometry" />
        </mxCell>
        <mxCell id="QC8zk8TYM2wxsu0MSsxE-5" value="Architecture and Planning" style="rounded=0;whiteSpace=wrap;html=1;" vertex="1" parent="1">
          <mxGeometry x="210" y="70" width="120" height="50" as="geometry" />
        </mxCell>
        <mxCell id="QC8zk8TYM2wxsu0MSsxE-6" value="Discovery and Analysis" style="rounded=0;whiteSpace=wrap;html=1;" vertex="1" parent="1">
          <mxGeometry x="100" y="70" width="110" height="50" as="geometry" />
        </mxCell>
        <mxCell id="QC8zk8TYM2wxsu0MSsxE-7" value="Wave Closure" style="rounded=0;whiteSpace=wrap;html=1;" vertex="1" parent="1">
          <mxGeometry x="810" y="70" width="120" height="50" as="geometry" />
        </mxCell>
        <mxCell id="QC8zk8TYM2wxsu0MSsxE-8" value="Migration Execution" style="rounded=0;whiteSpace=wrap;html=1;" vertex="1" parent="1">
          <mxGeometry x="690" y="70" width="120" height="50" as="geometry" />
        </mxCell>
        <mxCell id="QC8zk8TYM2wxsu0MSsxE-14" value="Architecture and Planning Team" style="whiteSpace=wrap;html=1;aspect=fixed;" vertex="1" parent="1">
          <mxGeometry x="-35" y="210" width="110" height="110" as="geometry" />
        </mxCell>
        <mxCell id="QC8zk8TYM2wxsu0MSsxE-15" value="Client" style="rounded=0;whiteSpace=wrap;html=1;" vertex="1" parent="1">
          <mxGeometry x="-40" y="140" width="120" height="30" as="geometry" />
        </mxCell>
        <mxCell id="QC8zk8TYM2wxsu0MSsxE-16" value="" style="whiteSpace=wrap;html=1;aspect=fixed;" vertex="1" parent="1">
          <mxGeometry x="260" y="260" width="80" height="80" as="geometry" />
        </mxCell>
        <mxCell id="QC8zk8TYM2wxsu0MSsxE-17" value="" style="whiteSpace=wrap;html=1;aspect=fixed;" vertex="1" parent="1">
          <mxGeometry x="420" y="225" width="80" height="80" as="geometry" />
        </mxCell>
        <mxCell id="QC8zk8TYM2wxsu0MSsxE-18" value="Setup Discovery Tools, define business rules, sequencing, priority and constraints" style="whiteSpace=wrap;html=1;aspect=fixed;" vertex="1" parent="1">
          <mxGeometry x="100" y="125" width="100" height="100" as="geometry" />
        </mxCell>
        <mxCell id="QC8zk8TYM2wxsu0MSsxE-19" value="" style="whiteSpace=wrap;html=1;aspect=fixed;" vertex="1" parent="1">
          <mxGeometry x="470" y="145" width="80" height="80" as="geometry" />
        </mxCell>
      </root>
    </mxGraphModel>
  </diagram>
</mxfile>
